<svg xmlns="http://www.w3.org/2000/svg" xmlns:xlink="http://www.w3.org/1999/xlink" width="500" zoomAndPan="magnify" viewBox="0 0 375 374.999991" height="500" preserveAspectRatio="xMidYMid meet" version="1.0"><defs><g/><clipPath id="89f0fd6586"><path d="M 87.371094 91.355469 L 287.597656 91.355469 L 287.597656 283.355469 L 87.371094 283.355469 Z M 87.371094 91.355469 " clip-rule="nonzero"/></clipPath><clipPath id="a332b81719"><rect x="0" width="189" y="0" height="73"/></clipPath><clipPath id="5a92a857dc"><rect x="0" width="189" y="0" height="73"/></clipPath></defs><g clip-path="url(#89f0fd6586)"><path fill="#ffffff" d="M 282.949219 221.796875 C 282.378906 223.589844 281.761719 225.359375 281.09375 227.105469 L 93.902344 227.105469 L 95.808594 231.769531 C 95.136719 230.238281 94.5 228.683594 93.902344 227.105469 L 93.898438 227.105469 C 93.230469 225.359375 92.613281 223.589844 92.042969 221.796875 Z M 274.109375 241.742188 L 100.882812 241.742188 C 101.710938 243.167969 102.574219 244.570312 103.46875 245.945312 L 271.523438 245.945312 C 272.417969 244.570312 273.28125 243.167969 274.109375 241.742188 Z M 267.484375 251.714844 L 107.507812 251.714844 C 108.445312 252.957031 109.40625 254.171875 110.394531 255.367188 L 264.59375 255.367188 C 265.585938 254.171875 266.546875 252.957031 267.484375 251.714844 Z M 279.183594 231.769531 L 95.808594 231.769531 C 96.515625 233.375 97.265625 234.964844 98.050781 236.523438 L 276.9375 236.523438 C 277.726562 234.964844 278.472656 233.375 279.183594 231.769531 Z M 287.09375 201.851562 L 87.898438 201.851562 C 88.121094 204.007812 88.414062 206.144531 88.773438 208.261719 L 286.21875 208.261719 C 286.574219 206.144531 286.871094 204.007812 287.09375 201.851562 Z M 283.199219 161.957031 L 91.789062 161.957031 C 90.921875 164.78125 90.175781 167.65625 89.554688 170.578125 L 285.4375 170.578125 C 284.816406 167.65625 284.070312 164.78125 283.199219 161.957031 Z M 87.371094 198.839844 L 87.371094 191.875 L 287.621094 191.875 L 287.621094 198.839844 Z M 187.496094 91.347656 C 142.765625 91.347656 104.890625 120.679688 92.042969 161.160156 L 282.949219 161.160156 C 270.101562 120.679688 232.226562 91.347656 187.496094 91.347656 Z M 285.714844 171.929688 L 89.277344 171.929688 C 88.753906 174.582031 88.335938 177.277344 88.023438 180 L 286.96875 180 C 286.65625 177.277344 286.238281 174.582031 285.714844 171.929688 Z M 287.167969 181.902344 L 87.824219 181.902344 C 87.585938 184.382812 87.441406 186.890625 87.390625 189.421875 L 287.601562 189.421875 C 287.550781 186.890625 287.402344 184.382812 287.167969 181.902344 Z M 285.554688 211.824219 L 89.4375 211.824219 C 89.84375 213.800781 90.316406 215.75 90.835938 217.683594 L 284.15625 217.683594 C 284.675781 215.75 285.148438 213.800781 285.554688 211.824219 Z M 247.476562 271.660156 L 127.515625 271.660156 C 128.683594 272.539062 129.875 273.382812 131.082031 274.207031 L 243.914062 274.207031 C 245.117188 273.382812 246.308594 272.539062 247.476562 271.660156 Z M 231.105469 281.636719 L 143.886719 281.636719 C 145.328125 282.335938 146.789062 283 148.269531 283.628906 L 226.722656 283.628906 C 228.203125 283 229.664062 282.335938 231.105469 281.636719 Z M 258.878906 261.6875 L 116.113281 261.6875 C 117.152344 262.746094 118.21875 263.777344 119.304688 264.789062 L 255.691406 264.789062 C 256.773438 263.777344 257.835938 262.746094 258.878906 261.6875 Z M 92.039062 221.796875 C 91.609375 220.441406 91.210938 219.066406 90.835938 217.6875 Z M 92.039062 221.796875 " fill-opacity="1" fill-rule="evenodd"/></g><g transform="matrix(1, 0, 0, 1, 92, 149)"><g clip-path="url(#a332b81719)"><g fill="#000000" fill-opacity="1"><g transform="translate(5.683687, 57.175207)"><g><path d="M 26.1875 0 L 26.1875 -36.507812 L 28.242188 -36.507812 L 28.242188 -34.453125 L 0.820312 -34.453125 L 0.820312 -36.507812 L 2.875 -36.507812 L 2.875 -28.132812 L 0.820312 -28.132812 L 0.820312 -30.1875 L 4.679688 -30.1875 L 4.679688 0 L 2.628906 0 L 2.628906 -2.054688 L 9.960938 -2.054688 L 9.960938 0 L 7.910156 0 L 7.910156 -30.1875 L 21.15625 -30.1875 L 21.15625 0 L 19.101562 0 L 19.101562 -2.054688 L 28.242188 -2.054688 L 28.242188 0 Z M 30.296875 2.054688 L 17.050781 2.054688 L 17.050781 -28.132812 L 19.101562 -28.132812 L 19.101562 -26.078125 L 9.960938 -26.078125 L 9.960938 -28.132812 L 12.015625 -28.132812 L 12.015625 2.054688 L 0.574219 2.054688 L 0.574219 -28.132812 L 2.628906 -28.132812 L 2.628906 -26.078125 L -1.230469 -26.078125 L -1.230469 -38.558594 L 30.296875 -38.558594 Z M 30.296875 2.054688 "/></g></g></g><g fill="#000000" fill-opacity="1"><g transform="translate(35.346504, 57.175207)"><g><path d="M 26.683594 0 L 26.683594 -8.320312 L 28.734375 -8.320312 L 28.734375 -6.265625 L 8.511719 -6.265625 L 8.511719 -16.394531 L 28.734375 -16.394531 L 28.734375 -14.339844 L 26.683594 -14.339844 L 26.683594 -22.386719 L 28.734375 -22.386719 L 28.734375 -20.332031 L 8.511719 -20.332031 L 8.511719 -30.1875 L 28.734375 -30.1875 L 28.734375 -28.132812 L 26.683594 -28.132812 L 26.683594 -36.507812 L 28.734375 -36.507812 L 28.734375 -34.453125 L 1.421875 -34.453125 L 1.421875 -36.507812 L 3.476562 -36.507812 L 3.476562 0 L 1.421875 0 L 1.421875 -2.054688 L 28.734375 -2.054688 L 28.734375 0 Z M 30.789062 2.054688 L -0.628906 2.054688 L -0.628906 -38.558594 L 30.789062 -38.558594 L 30.789062 -26.078125 L 10.5625 -26.078125 L 10.5625 -28.132812 L 12.617188 -28.132812 L 12.617188 -22.386719 L 10.5625 -22.386719 L 10.5625 -24.4375 L 30.789062 -24.4375 L 30.789062 -12.289062 L 10.5625 -12.289062 L 10.5625 -14.339844 L 12.617188 -14.339844 L 12.617188 -8.320312 L 10.5625 -8.320312 L 10.5625 -10.371094 L 30.789062 -10.371094 Z M 30.789062 2.054688 "/></g></g></g><g fill="#000000" fill-opacity="1"><g transform="translate(65.501882, 57.175207)"><g><path d="M 26.1875 -28.132812 L 26.1875 -36.507812 L 28.242188 -36.507812 L 28.242188 -34.453125 L 0.820312 -34.453125 L 0.820312 -36.507812 L 2.875 -36.507812 L 2.875 -28.132812 L 0.820312 -28.132812 L 0.820312 -30.1875 L 12.070312 -30.1875 L 12.070312 0 L 10.015625 0 L 10.015625 -2.054688 L 19.15625 -2.054688 L 19.15625 0 L 17.105469 0 L 17.105469 -30.1875 L 28.242188 -30.1875 L 28.242188 -28.132812 Z M 30.296875 -26.078125 L 19.15625 -26.078125 L 19.15625 -28.132812 L 21.210938 -28.132812 L 21.210938 2.054688 L 7.964844 2.054688 L 7.964844 -28.132812 L 10.015625 -28.132812 L 10.015625 -26.078125 L -1.230469 -26.078125 L -1.230469 -38.558594 L 30.296875 -38.558594 Z M 30.296875 -26.078125 "/></g></g></g><g fill="#000000" fill-opacity="1"><g transform="translate(94.562703, 57.175207)"><g><path d="M 26.792969 0 L 26.792969 -36.507812 L 28.84375 -36.507812 L 28.84375 -34.453125 L 19.703125 -34.453125 L 19.703125 -36.507812 L 21.757812 -36.507812 L 21.757812 -20.332031 L 8.511719 -20.332031 L 8.511719 -36.507812 L 10.5625 -36.507812 L 10.5625 -34.453125 L 1.421875 -34.453125 L 1.421875 -36.507812 L 3.476562 -36.507812 L 3.476562 0 L 1.421875 0 L 1.421875 -2.054688 L 10.5625 -2.054688 L 10.5625 0 L 8.511719 0 L 8.511719 -16.394531 L 21.757812 -16.394531 L 21.757812 0 L 19.703125 0 L 19.703125 -2.054688 L 28.84375 -2.054688 L 28.84375 0 Z M 30.898438 2.054688 L 17.652344 2.054688 L 17.652344 -14.339844 L 19.703125 -14.339844 L 19.703125 -12.289062 L 10.5625 -12.289062 L 10.5625 -14.339844 L 12.617188 -14.339844 L 12.617188 2.054688 L -0.628906 2.054688 L -0.628906 -38.558594 L 12.617188 -38.558594 L 12.617188 -22.386719 L 10.5625 -22.386719 L 10.5625 -24.4375 L 19.703125 -24.4375 L 19.703125 -22.386719 L 17.652344 -22.386719 L 17.652344 -38.558594 L 30.898438 -38.558594 Z M 30.898438 2.054688 "/></g></g></g><g fill="#000000" fill-opacity="1"><g transform="translate(124.827517, 57.175207)"><g><path d="M 26.683594 0 L 26.683594 -8.320312 L 28.734375 -8.320312 L 28.734375 -6.265625 L 8.511719 -6.265625 L 8.511719 -16.394531 L 28.734375 -16.394531 L 28.734375 -14.339844 L 26.683594 -14.339844 L 26.683594 -22.386719 L 28.734375 -22.386719 L 28.734375 -20.332031 L 8.511719 -20.332031 L 8.511719 -30.1875 L 28.734375 -30.1875 L 28.734375 -28.132812 L 26.683594 -28.132812 L 26.683594 -36.507812 L 28.734375 -36.507812 L 28.734375 -34.453125 L 1.421875 -34.453125 L 1.421875 -36.507812 L 3.476562 -36.507812 L 3.476562 0 L 1.421875 0 L 1.421875 -2.054688 L 28.734375 -2.054688 L 28.734375 0 Z M 30.789062 2.054688 L -0.628906 2.054688 L -0.628906 -38.558594 L 30.789062 -38.558594 L 30.789062 -26.078125 L 10.5625 -26.078125 L 10.5625 -28.132812 L 12.617188 -28.132812 L 12.617188 -22.386719 L 10.5625 -22.386719 L 10.5625 -24.4375 L 30.789062 -24.4375 L 30.789062 -12.289062 L 10.5625 -12.289062 L 10.5625 -14.339844 L 12.617188 -14.339844 L 12.617188 -8.320312 L 10.5625 -8.320312 L 10.5625 -10.371094 L 30.789062 -10.371094 Z M 30.789062 2.054688 "/></g></g></g><g fill="#000000" fill-opacity="1"><g transform="translate(154.982895, 57.175207)"><g><path d="M 27.027344 0.957031 L 20.078125 -12.234375 L 28.84375 -12.234375 L 28.84375 -10.179688 L 26.792969 -10.179688 L 26.792969 -36.507812 L 28.84375 -36.507812 L 28.84375 -34.453125 L 1.421875 -34.453125 L 1.421875 -36.507812 L 3.476562 -36.507812 L 3.476562 0 L 1.421875 0 L 1.421875 -2.054688 L 10.5625 -2.054688 L 10.5625 0 L 8.511719 0 L 8.511719 -12.234375 L 15.761719 -12.234375 L 21.53125 -0.933594 L 19.703125 0 L 19.703125 -2.054688 L 28.84375 -2.054688 L 28.84375 0 Z M 32.246094 2.054688 L 18.449219 2.054688 L 12.675781 -9.246094 L 14.503906 -10.179688 L 14.503906 -8.128906 L 10.5625 -8.128906 L 10.5625 -10.179688 L 12.617188 -10.179688 L 12.617188 2.054688 L -0.628906 2.054688 L -0.628906 -38.558594 L 30.898438 -38.558594 L 30.898438 -8.128906 L 23.480469 -8.128906 L 23.480469 -10.179688 L 25.296875 -11.136719 L 30.660156 -0.957031 Z M 19.703125 -16.445312 L 8.511719 -16.445312 L 8.511719 -30.1875 L 21.757812 -30.1875 L 21.757812 -16.445312 Z M 19.703125 -20.550781 L 19.703125 -18.5 L 17.652344 -18.5 L 17.652344 -28.132812 L 19.703125 -28.132812 L 19.703125 -26.078125 L 10.5625 -26.078125 L 10.5625 -28.132812 L 12.617188 -28.132812 L 12.617188 -18.5 L 10.5625 -18.5 L 10.5625 -20.550781 Z M 19.703125 -20.550781 "/></g></g></g><g fill="#ffffff" fill-opacity="1"><g transform="translate(5.683687, 57.175207)"><g><path d="M 28.242188 0 L 28.242188 -36.507812 L 0.820312 -36.507812 L 0.820312 -28.132812 L 2.628906 -28.132812 L 2.628906 0 L 9.960938 0 L 9.960938 -28.132812 L 19.101562 -28.132812 L 19.101562 0 Z M 28.242188 0 "/></g></g></g><g fill="#ffffff" fill-opacity="1"><g transform="translate(35.346504, 57.175207)"><g><path d="M 28.734375 0 L 28.734375 -8.320312 L 10.5625 -8.320312 L 10.5625 -14.339844 L 28.734375 -14.339844 L 28.734375 -22.386719 L 10.5625 -22.386719 L 10.5625 -28.132812 L 28.734375 -28.132812 L 28.734375 -36.507812 L 1.421875 -36.507812 L 1.421875 0 Z M 28.734375 0 "/></g></g></g><g fill="#ffffff" fill-opacity="1"><g transform="translate(65.501882, 57.175207)"><g><path d="M 28.242188 -28.132812 L 28.242188 -36.507812 L 0.820312 -36.507812 L 0.820312 -28.132812 L 10.015625 -28.132812 L 10.015625 0 L 19.15625 0 L 19.15625 -28.132812 Z M 28.242188 -28.132812 "/></g></g></g><g fill="#ffffff" fill-opacity="1"><g transform="translate(94.562703, 57.175207)"><g><path d="M 28.84375 0 L 28.84375 -36.507812 L 19.703125 -36.507812 L 19.703125 -22.386719 L 10.5625 -22.386719 L 10.5625 -36.507812 L 1.421875 -36.507812 L 1.421875 0 L 10.5625 0 L 10.5625 -14.339844 L 19.703125 -14.339844 L 19.703125 0 Z M 28.84375 0 "/></g></g></g><g fill="#ffffff" fill-opacity="1"><g transform="translate(124.827517, 57.175207)"><g><path d="M 28.734375 0 L 28.734375 -8.320312 L 10.5625 -8.320312 L 10.5625 -14.339844 L 28.734375 -14.339844 L 28.734375 -22.386719 L 10.5625 -22.386719 L 10.5625 -28.132812 L 28.734375 -28.132812 L 28.734375 -36.507812 L 1.421875 -36.507812 L 1.421875 0 Z M 28.734375 0 "/></g></g></g><g fill="#ffffff" fill-opacity="1"><g transform="translate(154.982895, 57.175207)"><g><path d="M 28.84375 0 L 23.480469 -10.179688 L 28.84375 -10.179688 L 28.84375 -36.507812 L 1.421875 -36.507812 L 1.421875 0 L 10.5625 0 L 10.5625 -10.179688 L 14.503906 -10.179688 L 19.703125 0 Z M 19.703125 -18.5 L 10.5625 -18.5 L 10.5625 -28.132812 L 19.703125 -28.132812 Z M 19.703125 -18.5 "/></g></g></g></g></g><g fill="#000000" fill-opacity="1"><g transform="translate(112.108795, 249.454964)"><g><path d="M 26.792969 0 L 26.792969 -14.339844 L 28.84375 -14.339844 L 28.84375 -12.289062 L 19.703125 -12.289062 L 19.703125 -14.339844 L 21.757812 -14.339844 L 21.757812 -6.265625 L 8.511719 -6.265625 L 8.511719 -30.1875 L 28.84375 -30.1875 L 28.84375 -28.132812 L 26.792969 -28.132812 L 26.792969 -36.507812 L 28.84375 -36.507812 L 28.84375 -34.457031 L 1.421875 -34.457031 L 1.421875 -36.507812 L 3.476562 -36.507812 L 3.476562 0 L 1.421875 0 L 1.421875 -2.054688 L 28.84375 -2.054688 L 28.84375 0 Z M 30.898438 2.054688 L -0.628906 2.054688 L -0.628906 -38.5625 L 30.898438 -38.5625 L 30.898438 -26.082031 L 10.5625 -26.082031 L 10.5625 -28.132812 L 12.617188 -28.132812 L 12.617188 -8.320312 L 10.5625 -8.320312 L 10.5625 -10.371094 L 19.703125 -10.371094 L 19.703125 -8.320312 L 17.652344 -8.320312 L 17.652344 -16.394531 L 30.898438 -16.394531 Z M 30.898438 2.054688 "/></g></g></g><g fill="#000000" fill-opacity="1"><g transform="translate(142.372568, 249.454964)"><g><path d="M 26.792969 0 L 26.792969 -36.507812 L 28.84375 -36.507812 L 28.84375 -34.457031 L 19.703125 -34.457031 L 19.703125 -36.507812 L 21.757812 -36.507812 L 21.757812 -6.265625 L 8.511719 -6.265625 L 8.511719 -36.507812 L 10.5625 -36.507812 L 10.5625 -34.457031 L 1.421875 -34.457031 L 1.421875 -36.507812 L 3.476562 -36.507812 L 3.476562 0 L 1.421875 0 L 1.421875 -2.054688 L 28.84375 -2.054688 L 28.84375 0 Z M 30.898438 2.054688 L -0.628906 2.054688 L -0.628906 -38.5625 L 12.617188 -38.5625 L 12.617188 -8.320312 L 10.5625 -8.320312 L 10.5625 -10.371094 L 19.703125 -10.371094 L 19.703125 -8.320312 L 17.652344 -8.320312 L 17.652344 -38.5625 L 30.898438 -38.5625 Z M 30.898438 2.054688 "/></g></g></g><g fill="#000000" fill-opacity="1"><g transform="translate(172.636341, 249.454964)"><g><path d="M 26.792969 0 L 26.792969 -36.507812 L 28.84375 -36.507812 L 28.84375 -34.457031 L 1.421875 -34.457031 L 1.421875 -36.507812 L 3.476562 -36.507812 L 3.476562 0 L 1.421875 0 L 1.421875 -2.054688 L 10.5625 -2.054688 L 10.5625 0 L 8.511719 0 L 8.511719 -12.234375 L 21.757812 -12.234375 L 21.757812 0 L 19.703125 0 L 19.703125 -2.054688 L 28.84375 -2.054688 L 28.84375 0 Z M 30.898438 2.054688 L 17.652344 2.054688 L 17.652344 -10.179688 L 19.703125 -10.179688 L 19.703125 -8.128906 L 10.5625 -8.128906 L 10.5625 -10.179688 L 12.617188 -10.179688 L 12.617188 2.054688 L -0.628906 2.054688 L -0.628906 -38.5625 L 30.898438 -38.5625 Z M 19.703125 -16.449219 L 8.511719 -16.449219 L 8.511719 -30.1875 L 21.757812 -30.1875 L 21.757812 -16.449219 Z M 19.703125 -20.554688 L 19.703125 -18.5 L 17.652344 -18.5 L 17.652344 -28.132812 L 19.703125 -28.132812 L 19.703125 -26.082031 L 10.5625 -26.082031 L 10.5625 -28.132812 L 12.617188 -28.132812 L 12.617188 -18.5 L 10.5625 -18.5 L 10.5625 -20.554688 Z M 19.703125 -20.554688 "/></g></g></g><g fill="#000000" fill-opacity="1"><g transform="translate(202.900114, 249.454964)"><g><path d="M 27.027344 0.957031 L 20.078125 -12.234375 L 28.84375 -12.234375 L 28.84375 -10.179688 L 26.792969 -10.179688 L 26.792969 -36.507812 L 28.84375 -36.507812 L 28.84375 -34.457031 L 1.421875 -34.457031 L 1.421875 -36.507812 L 3.476562 -36.507812 L 3.476562 0 L 1.421875 0 L 1.421875 -2.054688 L 10.5625 -2.054688 L 10.5625 0 L 8.511719 0 L 8.511719 -12.234375 L 15.761719 -12.234375 L 21.53125 -0.933594 L 19.703125 0 L 19.703125 -2.054688 L 28.84375 -2.054688 L 28.84375 0 Z M 32.246094 2.054688 L 18.449219 2.054688 L 12.675781 -9.246094 L 14.503906 -10.179688 L 14.503906 -8.128906 L 10.5625 -8.128906 L 10.5625 -10.179688 L 12.617188 -10.179688 L 12.617188 2.054688 L -0.628906 2.054688 L -0.628906 -38.5625 L 30.898438 -38.5625 L 30.898438 -8.128906 L 23.480469 -8.128906 L 23.480469 -10.179688 L 25.296875 -11.136719 L 30.660156 -0.957031 Z M 19.703125 -16.449219 L 8.511719 -16.449219 L 8.511719 -30.1875 L 21.757812 -30.1875 L 21.757812 -16.449219 Z M 19.703125 -20.554688 L 19.703125 -18.5 L 17.652344 -18.5 L 17.652344 -28.132812 L 19.703125 -28.132812 L 19.703125 -26.082031 L 10.5625 -26.082031 L 10.5625 -28.132812 L 12.617188 -28.132812 L 12.617188 -18.5 L 10.5625 -18.5 L 10.5625 -20.554688 Z M 19.703125 -20.554688 "/></g></g></g><g fill="#000000" fill-opacity="1"><g transform="translate(233.163887, 249.454964)"><g><path d="M 26.246094 0 L 26.246094 -36.507812 L 28.296875 -36.507812 L 28.296875 -34.457031 L 0.875 -34.457031 L 0.875 -36.507812 L 2.929688 -36.507812 L 2.929688 -28.132812 L 0.875 -28.132812 L 0.875 -30.1875 L 4.734375 -30.1875 L 4.734375 -6.265625 L 0.875 -6.265625 L 0.875 -8.320312 L 2.929688 -8.320312 L 2.929688 0 L 0.875 0 L 0.875 -2.054688 L 28.296875 -2.054688 L 28.296875 0 Z M 30.351562 2.054688 L -1.175781 2.054688 L -1.175781 -10.371094 L 2.683594 -10.371094 L 2.683594 -8.320312 L 0.628906 -8.320312 L 0.628906 -28.132812 L 2.683594 -28.132812 L 2.683594 -26.082031 L -1.175781 -26.082031 L -1.175781 -38.5625 L 30.351562 -38.5625 Z M 19.15625 -6.265625 L 7.964844 -6.265625 L 7.964844 -30.1875 L 21.210938 -30.1875 L 21.210938 -6.265625 Z M 19.15625 -10.371094 L 19.15625 -8.320312 L 17.105469 -8.320312 L 17.105469 -28.132812 L 19.15625 -28.132812 L 19.15625 -26.082031 L 10.015625 -26.082031 L 10.015625 -28.132812 L 12.070312 -28.132812 L 12.070312 -8.320312 L 10.015625 -8.320312 L 10.015625 -10.371094 Z M 19.15625 -10.371094 "/></g></g></g><g fill="#ffffff" fill-opacity="1"><g transform="translate(112.108795, 249.454964)"><g><path d="M 28.84375 0 L 28.84375 -14.339844 L 19.703125 -14.339844 L 19.703125 -8.320312 L 10.5625 -8.320312 L 10.5625 -28.132812 L 28.84375 -28.132812 L 28.84375 -36.507812 L 1.421875 -36.507812 L 1.421875 0 Z M 28.84375 0 "/></g></g></g><g fill="#ffffff" fill-opacity="1"><g transform="translate(142.372568, 249.454964)"><g><path d="M 28.84375 0 L 28.84375 -36.507812 L 19.703125 -36.507812 L 19.703125 -8.320312 L 10.5625 -8.320312 L 10.5625 -36.507812 L 1.421875 -36.507812 L 1.421875 0 Z M 28.84375 0 "/></g></g></g><g fill="#ffffff" fill-opacity="1"><g transform="translate(172.636341, 249.454964)"><g><path d="M 28.84375 0 L 28.84375 -36.507812 L 1.421875 -36.507812 L 1.421875 0 L 10.5625 0 L 10.5625 -10.179688 L 19.703125 -10.179688 L 19.703125 0 Z M 19.703125 -18.5 L 10.5625 -18.5 L 10.5625 -28.132812 L 19.703125 -28.132812 Z M 19.703125 -18.5 "/></g></g></g><g fill="#ffffff" fill-opacity="1"><g transform="translate(202.900114, 249.454964)"><g><path d="M 28.84375 0 L 23.480469 -10.179688 L 28.84375 -10.179688 L 28.84375 -36.507812 L 1.421875 -36.507812 L 1.421875 0 L 10.5625 0 L 10.5625 -10.179688 L 14.503906 -10.179688 L 19.703125 0 Z M 19.703125 -18.5 L 10.5625 -18.5 L 10.5625 -28.132812 L 19.703125 -28.132812 Z M 19.703125 -18.5 "/></g></g></g><g fill="#ffffff" fill-opacity="1"><g transform="translate(233.163887, 249.454964)"><g><path d="M 28.296875 0 L 28.296875 -36.507812 L 0.875 -36.507812 L 0.875 -28.132812 L 2.683594 -28.132812 L 2.683594 -8.320312 L 0.875 -8.320312 L 0.875 0 Z M 19.15625 -8.320312 L 10.015625 -8.320312 L 10.015625 -28.132812 L 19.15625 -28.132812 Z M 19.15625 -8.320312 "/></g></g></g><g transform="matrix(1, 0, 0, 1, 92, 139)"><g clip-path="url(#5a92a857dc)"><g fill="#ffffff" fill-opacity="1"><g transform="translate(5.683687, 57.496077)"><g><path d="M 26.1875 0 L 26.1875 -36.507812 L 28.242188 -36.507812 L 28.242188 -34.453125 L 0.820312 -34.453125 L 0.820312 -36.507812 L 2.875 -36.507812 L 2.875 -28.132812 L 0.820312 -28.132812 L 0.820312 -30.1875 L 4.679688 -30.1875 L 4.679688 0 L 2.628906 0 L 2.628906 -2.054688 L 9.960938 -2.054688 L 9.960938 0 L 7.910156 0 L 7.910156 -30.1875 L 21.15625 -30.1875 L 21.15625 0 L 19.101562 0 L 19.101562 -2.054688 L 28.242188 -2.054688 L 28.242188 0 Z M 30.296875 2.054688 L 17.050781 2.054688 L 17.050781 -28.132812 L 19.101562 -28.132812 L 19.101562 -26.078125 L 9.960938 -26.078125 L 9.960938 -28.132812 L 12.015625 -28.132812 L 12.015625 2.054688 L 0.574219 2.054688 L 0.574219 -28.132812 L 2.628906 -28.132812 L 2.628906 -26.078125 L -1.230469 -26.078125 L -1.230469 -38.558594 L 30.296875 -38.558594 Z M 30.296875 2.054688 "/></g></g></g><g fill="#ffffff" fill-opacity="1"><g transform="translate(35.346504, 57.496077)"><g><path d="M 26.683594 0 L 26.683594 -8.320312 L 28.734375 -8.320312 L 28.734375 -6.265625 L 8.511719 -6.265625 L 8.511719 -16.394531 L 28.734375 -16.394531 L 28.734375 -14.339844 L 26.683594 -14.339844 L 26.683594 -22.386719 L 28.734375 -22.386719 L 28.734375 -20.332031 L 8.511719 -20.332031 L 8.511719 -30.1875 L 28.734375 -30.1875 L 28.734375 -28.132812 L 26.683594 -28.132812 L 26.683594 -36.507812 L 28.734375 -36.507812 L 28.734375 -34.453125 L 1.421875 -34.453125 L 1.421875 -36.507812 L 3.476562 -36.507812 L 3.476562 0 L 1.421875 0 L 1.421875 -2.054688 L 28.734375 -2.054688 L 28.734375 0 Z M 30.789062 2.054688 L -0.628906 2.054688 L -0.628906 -38.558594 L 30.789062 -38.558594 L 30.789062 -26.078125 L 10.5625 -26.078125 L 10.5625 -28.132812 L 12.617188 -28.132812 L 12.617188 -22.386719 L 10.5625 -22.386719 L 10.5625 -24.4375 L 30.789062 -24.4375 L 30.789062 -12.289062 L 10.5625 -12.289062 L 10.5625 -14.339844 L 12.617188 -14.339844 L 12.617188 -8.320312 L 10.5625 -8.320312 L 10.5625 -10.371094 L 30.789062 -10.371094 Z M 30.789062 2.054688 "/></g></g></g><g fill="#ffffff" fill-opacity="1"><g transform="translate(65.501882, 57.496077)"><g><path d="M 26.1875 -28.132812 L 26.1875 -36.507812 L 28.242188 -36.507812 L 28.242188 -34.453125 L 0.820312 -34.453125 L 0.820312 -36.507812 L 2.875 -36.507812 L 2.875 -28.132812 L 0.820312 -28.132812 L 0.820312 -30.1875 L 12.070312 -30.1875 L 12.070312 0 L 10.015625 0 L 10.015625 -2.054688 L 19.15625 -2.054688 L 19.15625 0 L 17.105469 0 L 17.105469 -30.1875 L 28.242188 -30.1875 L 28.242188 -28.132812 Z M 30.296875 -26.078125 L 19.15625 -26.078125 L 19.15625 -28.132812 L 21.210938 -28.132812 L 21.210938 2.054688 L 7.964844 2.054688 L 7.964844 -28.132812 L 10.015625 -28.132812 L 10.015625 -26.078125 L -1.230469 -26.078125 L -1.230469 -38.558594 L 30.296875 -38.558594 Z M 30.296875 -26.078125 "/></g></g></g><g fill="#ffffff" fill-opacity="1"><g transform="translate(94.562703, 57.496077)"><g><path d="M 26.792969 0 L 26.792969 -36.507812 L 28.84375 -36.507812 L 28.84375 -34.453125 L 19.703125 -34.453125 L 19.703125 -36.507812 L 21.757812 -36.507812 L 21.757812 -20.332031 L 8.511719 -20.332031 L 8.511719 -36.507812 L 10.5625 -36.507812 L 10.5625 -34.453125 L 1.421875 -34.453125 L 1.421875 -36.507812 L 3.476562 -36.507812 L 3.476562 0 L 1.421875 0 L 1.421875 -2.054688 L 10.5625 -2.054688 L 10.5625 0 L 8.511719 0 L 8.511719 -16.394531 L 21.757812 -16.394531 L 21.757812 0 L 19.703125 0 L 19.703125 -2.054688 L 28.84375 -2.054688 L 28.84375 0 Z M 30.898438 2.054688 L 17.652344 2.054688 L 17.652344 -14.339844 L 19.703125 -14.339844 L 19.703125 -12.289062 L 10.5625 -12.289062 L 10.5625 -14.339844 L 12.617188 -14.339844 L 12.617188 2.054688 L -0.628906 2.054688 L -0.628906 -38.558594 L 12.617188 -38.558594 L 12.617188 -22.386719 L 10.5625 -22.386719 L 10.5625 -24.4375 L 19.703125 -24.4375 L 19.703125 -22.386719 L 17.652344 -22.386719 L 17.652344 -38.558594 L 30.898438 -38.558594 Z M 30.898438 2.054688 "/></g></g></g><g fill="#ffffff" fill-opacity="1"><g transform="translate(124.827517, 57.496077)"><g><path d="M 26.683594 0 L 26.683594 -8.320312 L 28.734375 -8.320312 L 28.734375 -6.265625 L 8.511719 -6.265625 L 8.511719 -16.394531 L 28.734375 -16.394531 L 28.734375 -14.339844 L 26.683594 -14.339844 L 26.683594 -22.386719 L 28.734375 -22.386719 L 28.734375 -20.332031 L 8.511719 -20.332031 L 8.511719 -30.1875 L 28.734375 -30.1875 L 28.734375 -28.132812 L 26.683594 -28.132812 L 26.683594 -36.507812 L 28.734375 -36.507812 L 28.734375 -34.453125 L 1.421875 -34.453125 L 1.421875 -36.507812 L 3.476562 -36.507812 L 3.476562 0 L 1.421875 0 L 1.421875 -2.054688 L 28.734375 -2.054688 L 28.734375 0 Z M 30.789062 2.054688 L -0.628906 2.054688 L -0.628906 -38.558594 L 30.789062 -38.558594 L 30.789062 -26.078125 L 10.5625 -26.078125 L 10.5625 -28.132812 L 12.617188 -28.132812 L 12.617188 -22.386719 L 10.5625 -22.386719 L 10.5625 -24.4375 L 30.789062 -24.4375 L 30.789062 -12.289062 L 10.5625 -12.289062 L 10.5625 -14.339844 L 12.617188 -14.339844 L 12.617188 -8.320312 L 10.5625 -8.320312 L 10.5625 -10.371094 L 30.789062 -10.371094 Z M 30.789062 2.054688 "/></g></g></g><g fill="#ffffff" fill-opacity="1"><g transform="translate(154.982895, 57.496077)"><g><path d="M 27.027344 0.957031 L 20.078125 -12.234375 L 28.84375 -12.234375 L 28.84375 -10.179688 L 26.792969 -10.179688 L 26.792969 -36.507812 L 28.84375 -36.507812 L 28.84375 -34.453125 L 1.421875 -34.453125 L 1.421875 -36.507812 L 3.476562 -36.507812 L 3.476562 0 L 1.421875 0 L 1.421875 -2.054688 L 10.5625 -2.054688 L 10.5625 0 L 8.511719 0 L 8.511719 -12.234375 L 15.761719 -12.234375 L 21.53125 -0.933594 L 19.703125 0 L 19.703125 -2.054688 L 28.84375 -2.054688 L 28.84375 0 Z M 32.246094 2.054688 L 18.449219 2.054688 L 12.675781 -9.246094 L 14.503906 -10.179688 L 14.503906 -8.128906 L 10.5625 -8.128906 L 10.5625 -10.179688 L 12.617188 -10.179688 L 12.617188 2.054688 L -0.628906 2.054688 L -0.628906 -38.558594 L 30.898438 -38.558594 L 30.898438 -8.128906 L 23.480469 -8.128906 L 23.480469 -10.179688 L 25.296875 -11.136719 L 30.660156 -0.957031 Z M 19.703125 -16.445312 L 8.511719 -16.445312 L 8.511719 -30.1875 L 21.757812 -30.1875 L 21.757812 -16.445312 Z M 19.703125 -20.550781 L 19.703125 -18.5 L 17.652344 -18.5 L 17.652344 -28.132812 L 19.703125 -28.132812 L 19.703125 -26.078125 L 10.5625 -26.078125 L 10.5625 -28.132812 L 12.617188 -28.132812 L 12.617188 -18.5 L 10.5625 -18.5 L 10.5625 -20.550781 Z M 19.703125 -20.550781 "/></g></g></g><g fill="#000000" fill-opacity="1"><g transform="translate(5.683687, 57.496077)"><g><path d="M 28.242188 0 L 28.242188 -36.507812 L 0.820312 -36.507812 L 0.820312 -28.132812 L 2.628906 -28.132812 L 2.628906 0 L 9.960938 0 L 9.960938 -28.132812 L 19.101562 -28.132812 L 19.101562 0 Z M 28.242188 0 "/></g></g></g><g fill="#000000" fill-opacity="1"><g transform="translate(35.346504, 57.496077)"><g><path d="M 28.734375 0 L 28.734375 -8.320312 L 10.5625 -8.320312 L 10.5625 -14.339844 L 28.734375 -14.339844 L 28.734375 -22.386719 L 10.5625 -22.386719 L 10.5625 -28.132812 L 28.734375 -28.132812 L 28.734375 -36.507812 L 1.421875 -36.507812 L 1.421875 0 Z M 28.734375 0 "/></g></g></g><g fill="#000000" fill-opacity="1"><g transform="translate(65.501882, 57.496077)"><g><path d="M 28.242188 -28.132812 L 28.242188 -36.507812 L 0.820312 -36.507812 L 0.820312 -28.132812 L 10.015625 -28.132812 L 10.015625 0 L 19.15625 0 L 19.15625 -28.132812 Z M 28.242188 -28.132812 "/></g></g></g><g fill="#000000" fill-opacity="1"><g transform="translate(94.562703, 57.496077)"><g><path d="M 28.84375 0 L 28.84375 -36.507812 L 19.703125 -36.507812 L 19.703125 -22.386719 L 10.5625 -22.386719 L 10.5625 -36.507812 L 1.421875 -36.507812 L 1.421875 0 L 10.5625 0 L 10.5625 -14.339844 L 19.703125 -14.339844 L 19.703125 0 Z M 28.84375 0 "/></g></g></g><g fill="#000000" fill-opacity="1"><g transform="translate(124.827517, 57.496077)"><g><path d="M 28.734375 0 L 28.734375 -8.320312 L 10.5625 -8.320312 L 10.5625 -14.339844 L 28.734375 -14.339844 L 28.734375 -22.386719 L 10.5625 -22.386719 L 10.5625 -28.132812 L 28.734375 -28.132812 L 28.734375 -36.507812 L 1.421875 -36.507812 L 1.421875 0 Z M 28.734375 0 "/></g></g></g><g fill="#000000" fill-opacity="1"><g transform="translate(154.982895, 57.496077)"><g><path d="M 28.84375 0 L 23.480469 -10.179688 L 28.84375 -10.179688 L 28.84375 -36.507812 L 1.421875 -36.507812 L 1.421875 0 L 10.5625 0 L 10.5625 -10.179688 L 14.503906 -10.179688 L 19.703125 0 Z M 19.703125 -18.5 L 10.5625 -18.5 L 10.5625 -28.132812 L 19.703125 -28.132812 Z M 19.703125 -18.5 "/></g></g></g></g></g><g fill="#ffffff" fill-opacity="1"><g transform="translate(112.108795, 239.775834)"><g><path d="M 26.792969 0 L 26.792969 -14.339844 L 28.84375 -14.339844 L 28.84375 -12.289062 L 19.703125 -12.289062 L 19.703125 -14.339844 L 21.757812 -14.339844 L 21.757812 -6.265625 L 8.511719 -6.265625 L 8.511719 -30.1875 L 28.84375 -30.1875 L 28.84375 -28.132812 L 26.792969 -28.132812 L 26.792969 -36.507812 L 28.84375 -36.507812 L 28.84375 -34.457031 L 1.421875 -34.457031 L 1.421875 -36.507812 L 3.476562 -36.507812 L 3.476562 0 L 1.421875 0 L 1.421875 -2.054688 L 28.84375 -2.054688 L 28.84375 0 Z M 30.898438 2.054688 L -0.628906 2.054688 L -0.628906 -38.5625 L 30.898438 -38.5625 L 30.898438 -26.082031 L 10.5625 -26.082031 L 10.5625 -28.132812 L 12.617188 -28.132812 L 12.617188 -8.320312 L 10.5625 -8.320312 L 10.5625 -10.371094 L 19.703125 -10.371094 L 19.703125 -8.320312 L 17.652344 -8.320312 L 17.652344 -16.394531 L 30.898438 -16.394531 Z M 30.898438 2.054688 "/></g></g></g><g fill="#ffffff" fill-opacity="1"><g transform="translate(142.372568, 239.775834)"><g><path d="M 26.792969 0 L 26.792969 -36.507812 L 28.84375 -36.507812 L 28.84375 -34.457031 L 19.703125 -34.457031 L 19.703125 -36.507812 L 21.757812 -36.507812 L 21.757812 -6.265625 L 8.511719 -6.265625 L 8.511719 -36.507812 L 10.5625 -36.507812 L 10.5625 -34.457031 L 1.421875 -34.457031 L 1.421875 -36.507812 L 3.476562 -36.507812 L 3.476562 0 L 1.421875 0 L 1.421875 -2.054688 L 28.84375 -2.054688 L 28.84375 0 Z M 30.898438 2.054688 L -0.628906 2.054688 L -0.628906 -38.5625 L 12.617188 -38.5625 L 12.617188 -8.320312 L 10.5625 -8.320312 L 10.5625 -10.371094 L 19.703125 -10.371094 L 19.703125 -8.320312 L 17.652344 -8.320312 L 17.652344 -38.5625 L 30.898438 -38.5625 Z M 30.898438 2.054688 "/></g></g></g><g fill="#ffffff" fill-opacity="1"><g transform="translate(172.636341, 239.775834)"><g><path d="M 26.792969 0 L 26.792969 -36.507812 L 28.84375 -36.507812 L 28.84375 -34.457031 L 1.421875 -34.457031 L 1.421875 -36.507812 L 3.476562 -36.507812 L 3.476562 0 L 1.421875 0 L 1.421875 -2.054688 L 10.5625 -2.054688 L 10.5625 0 L 8.511719 0 L 8.511719 -12.234375 L 21.757812 -12.234375 L 21.757812 0 L 19.703125 0 L 19.703125 -2.054688 L 28.84375 -2.054688 L 28.84375 0 Z M 30.898438 2.054688 L 17.652344 2.054688 L 17.652344 -10.179688 L 19.703125 -10.179688 L 19.703125 -8.128906 L 10.5625 -8.128906 L 10.5625 -10.179688 L 12.617188 -10.179688 L 12.617188 2.054688 L -0.628906 2.054688 L -0.628906 -38.5625 L 30.898438 -38.5625 Z M 19.703125 -16.449219 L 8.511719 -16.449219 L 8.511719 -30.1875 L 21.757812 -30.1875 L 21.757812 -16.449219 Z M 19.703125 -20.554688 L 19.703125 -18.5 L 17.652344 -18.5 L 17.652344 -28.132812 L 19.703125 -28.132812 L 19.703125 -26.082031 L 10.5625 -26.082031 L 10.5625 -28.132812 L 12.617188 -28.132812 L 12.617188 -18.5 L 10.5625 -18.5 L 10.5625 -20.554688 Z M 19.703125 -20.554688 "/></g></g></g><g fill="#ffffff" fill-opacity="1"><g transform="translate(202.900114, 239.775834)"><g><path d="M 27.027344 0.957031 L 20.078125 -12.234375 L 28.84375 -12.234375 L 28.84375 -10.179688 L 26.792969 -10.179688 L 26.792969 -36.507812 L 28.84375 -36.507812 L 28.84375 -34.457031 L 1.421875 -34.457031 L 1.421875 -36.507812 L 3.476562 -36.507812 L 3.476562 0 L 1.421875 0 L 1.421875 -2.054688 L 10.5625 -2.054688 L 10.5625 0 L 8.511719 0 L 8.511719 -12.234375 L 15.761719 -12.234375 L 21.53125 -0.933594 L 19.703125 0 L 19.703125 -2.054688 L 28.84375 -2.054688 L 28.84375 0 Z M 32.246094 2.054688 L 18.449219 2.054688 L 12.675781 -9.246094 L 14.503906 -10.179688 L 14.503906 -8.128906 L 10.5625 -8.128906 L 10.5625 -10.179688 L 12.617188 -10.179688 L 12.617188 2.054688 L -0.628906 2.054688 L -0.628906 -38.5625 L 30.898438 -38.5625 L 30.898438 -8.128906 L 23.480469 -8.128906 L 23.480469 -10.179688 L 25.296875 -11.136719 L 30.660156 -0.957031 Z M 19.703125 -16.449219 L 8.511719 -16.449219 L 8.511719 -30.1875 L 21.757812 -30.1875 L 21.757812 -16.449219 Z M 19.703125 -20.554688 L 19.703125 -18.5 L 17.652344 -18.5 L 17.652344 -28.132812 L 19.703125 -28.132812 L 19.703125 -26.082031 L 10.5625 -26.082031 L 10.5625 -28.132812 L 12.617188 -28.132812 L 12.617188 -18.5 L 10.5625 -18.5 L 10.5625 -20.554688 Z M 19.703125 -20.554688 "/></g></g></g><g fill="#ffffff" fill-opacity="1"><g transform="translate(233.163887, 239.775834)"><g><path d="M 26.246094 0 L 26.246094 -36.507812 L 28.296875 -36.507812 L 28.296875 -34.457031 L 0.875 -34.457031 L 0.875 -36.507812 L 2.929688 -36.507812 L 2.929688 -28.132812 L 0.875 -28.132812 L 0.875 -30.1875 L 4.734375 -30.1875 L 4.734375 -6.265625 L 0.875 -6.265625 L 0.875 -8.320312 L 2.929688 -8.320312 L 2.929688 0 L 0.875 0 L 0.875 -2.054688 L 28.296875 -2.054688 L 28.296875 0 Z M 30.351562 2.054688 L -1.175781 2.054688 L -1.175781 -10.371094 L 2.683594 -10.371094 L 2.683594 -8.320312 L 0.628906 -8.320312 L 0.628906 -28.132812 L 2.683594 -28.132812 L 2.683594 -26.082031 L -1.175781 -26.082031 L -1.175781 -38.5625 L 30.351562 -38.5625 Z M 19.15625 -6.265625 L 7.964844 -6.265625 L 7.964844 -30.1875 L 21.210938 -30.1875 L 21.210938 -6.265625 Z M 19.15625 -10.371094 L 19.15625 -8.320312 L 17.105469 -8.320312 L 17.105469 -28.132812 L 19.15625 -28.132812 L 19.15625 -26.082031 L 10.015625 -26.082031 L 10.015625 -28.132812 L 12.070312 -28.132812 L 12.070312 -8.320312 L 10.015625 -8.320312 L 10.015625 -10.371094 Z M 19.15625 -10.371094 "/></g></g></g><g fill="#000000" fill-opacity="1"><g transform="translate(112.108795, 239.775834)"><g><path d="M 28.84375 0 L 28.84375 -14.339844 L 19.703125 -14.339844 L 19.703125 -8.320312 L 10.5625 -8.320312 L 10.5625 -28.132812 L 28.84375 -28.132812 L 28.84375 -36.507812 L 1.421875 -36.507812 L 1.421875 0 Z M 28.84375 0 "/></g></g></g><g fill="#000000" fill-opacity="1"><g transform="translate(142.372568, 239.775834)"><g><path d="M 28.84375 0 L 28.84375 -36.507812 L 19.703125 -36.507812 L 19.703125 -8.320312 L 10.5625 -8.320312 L 10.5625 -36.507812 L 1.421875 -36.507812 L 1.421875 0 Z M 28.84375 0 "/></g></g></g><g fill="#000000" fill-opacity="1"><g transform="translate(172.636341, 239.775834)"><g><path d="M 28.84375 0 L 28.84375 -36.507812 L 1.421875 -36.507812 L 1.421875 0 L 10.5625 0 L 10.5625 -10.179688 L 19.703125 -10.179688 L 19.703125 0 Z M 19.703125 -18.5 L 10.5625 -18.5 L 10.5625 -28.132812 L 19.703125 -28.132812 Z M 19.703125 -18.5 "/></g></g></g><g fill="#000000" fill-opacity="1"><g transform="translate(202.900114, 239.775834)"><g><path d="M 28.84375 0 L 23.480469 -10.179688 L 28.84375 -10.179688 L 28.84375 -36.507812 L 1.421875 -36.507812 L 1.421875 0 L 10.5625 0 L 10.5625 -10.179688 L 14.503906 -10.179688 L 19.703125 0 Z M 19.703125 -18.5 L 10.5625 -18.5 L 10.5625 -28.132812 L 19.703125 -28.132812 Z M 19.703125 -18.5 "/></g></g></g><g fill="#000000" fill-opacity="1"><g transform="translate(233.163887, 239.775834)"><g><path d="M 28.296875 0 L 28.296875 -36.507812 L 0.875 -36.507812 L 0.875 -28.132812 L 2.683594 -28.132812 L 2.683594 -8.320312 L 0.875 -8.320312 L 0.875 0 Z M 19.15625 -8.320312 L 10.015625 -8.320312 L 10.015625 -28.132812 L 19.15625 -28.132812 Z M 19.15625 -8.320312 "/></g></g></g></svg>